<?xml version="1.0" standalone="no"?>
<!DOCTYPE svg PUBLIC "-//W3C//DTD SVG 20010904//EN"
 "http://www.w3.org/TR/2001/REC-SVG-20010904/DTD/svg10.dtd">
<svg version="1.0" xmlns="http://www.w3.org/2000/svg"
 width="260.000000pt" height="260.000000pt" viewBox="0 0 260.000000 260.000000"
 preserveAspectRatio="xMidYMid meet">
<metadata>
Created by potrace 1.11, written by Peter Selinger 2001-2013
</metadata>
<g transform="translate(0.000000,260.000000) scale(0.100000,-0.100000)"
fill="#000000" stroke="none">
<path d="M0 1300 l0 -1300 1300 0 1300 0 0 1300 0 1300 -1300 0 -1300 0 0
-1300z m985 621 c33 -13 78 -37 101 -52 248 -169 214 -564 -59 -692 -78 -37
-143 -47 -297 -47 l-140 0 0 -225 0 -225 -130 0 -130 0 0 636 0 636 298 -4
c284 -4 300 -5 357 -27z m1149 -49 c172 -64 262 -177 273 -340 12 -184 -91
-328 -278 -393 -48 -16 -96 -23 -191 -27 l-128 -5 0 111 0 110 103 4 c126 4
170 23 204 88 43 81 18 187 -55 232 -34 21 -51 23 -189 26 l-153 4 0 -501 0
-501 -130 0 -130 0 0 611 0 611 308 -4 c286 -4 311 -6 366 -26z m-894 -982
l148 -205 -136 -3 c-75 -1 -141 -1 -147 2 -13 5 -269 355 -264 361 6 5 233 53
243 51 5 -1 75 -94 156 -206z"/>
<path d="M590 1541 l0 -181 133 0 c118 0 138 3 177 23 113 56 120 242 12 309
-33 21 -52 23 -179 26 l-143 4 0 -181z"/>
</g>
</svg>
