<?xml version="1.0" encoding="utf-8"?>
<!-- Generator: Adobe Illustrator 19.2.1, SVG Export Plug-In . SVG Version: 6.00 Build 0)  -->
<svg version="1.1" id="Layer_1" xmlns="http://www.w3.org/2000/svg" xmlns:xlink="http://www.w3.org/1999/xlink" x="0px" y="0px"
	 viewBox="0 0 604.6 364" style="enable-background:new 0 0 604.6 364;" xml:space="preserve">
<style type="text/css">
	.st0{display:none;}
	.st1{display:inline;fill:#BA1313;stroke:#000000;stroke-miterlimit:10;}
	.st2{fill:#FFFFFF;}
</style>
<g id="Layer_2" class="st0">
	<rect x="-41.5" y="-250.8" class="st1" width="765" height="858"/>
</g>
<g id="Layer_1_1_">
	<g>
		<path class="st2" d="M31,26.1h40.5c22.5,0,38.7,13.7,38.7,34.9c0,20.8-16.2,34.9-38.7,34.9H48.6V76.5h22.9
			c10.2,0,16.2-6.3,16.2-15.5c0-8.8-6-15.5-16.2-15.5H52.9v88.4H30.7V26.1H31z M74.3,102.9l21.8-4.6l25.7,35.6H97.2L74.3,102.9z"/>
		<path class="st2" d="M153.2,85.3h29.9c0-10.2-8.1-16.2-17.6-16.2c-11.6,0-20.1,9.5-20.1,24.3c0,15.1,9.2,23.6,23.6,23.6
			c8.8,0,15.8-3.2,22.5-8.1l9.2,15.1c-9.2,7.7-20.1,12-32.4,12c-25.7,0-44.4-18.3-44.4-42.3s18.3-42.3,42.3-42.3
			c22.5,0,38,16.5,38,37.7c0,4.6-0.7,9.2-1.4,12h-49.6V85.3z"/>
		<rect x="219.8" y="52.9" class="st2" width="22.2" height="81"/>
		<path class="st2" d="M271.2,86.7c0-9.2-5.3-15.5-14.8-15.5c-2.5,0-5.6,0.4-7.4,1.4v-18c4.2-2.1,9.2-3.2,15.1-3.2
			c18,0,29.2,13.4,29.2,32.4v50h-22.2V86.7z"/>
		<path class="st2" d="M322.2,86.7c0-9.5-5.6-15.5-14.8-15.5c-3.2,0-8.8-0.7-15.5,7l-6.7-16.2c10.6-9.5,21.5-10.6,28.9-10.6
			c19,0,29.9,13,29.9,32.4v50h-22.2V86.7L322.2,86.7L322.2,86.7z"/>
		<path class="st2" d="M412,102.6h-20.4c-7,0-11.3,2.8-11.3,8.1c0,5.6,4.9,8.8,12,8.8c3.2,0,6.7-1.1,9.5-2.1v14.4
			c-4.6,2.5-9.9,3.9-16.5,3.9c-16.5,0-27.1-10.6-27.1-24.3c0-14.8,12-23.6,30.6-23.6H412L412,102.6L412,102.6z M431,86v47.9h-22.2
			V84.6c0-8.8-4.9-14.1-15.1-14.1c-8.8,0-14.8,4.2-21.5,11.3L361,68.4c9.5-11.3,21.1-16.5,35.2-16.5C417,51.2,431,62.8,431,86z"/>
		<path class="st2" d="M474.7,23.7c0,7.7-6.3,13.4-14.1,13.4s-14.1-6-14.1-13.4c0-7.7,6.3-13.7,14.1-13.7S474.7,15.9,474.7,23.7z
			 M471.9,133.9h-22.2v-81h22.2V133.9z"/>
		<path class="st2" d="M513.4,133.9h-22.2v-81h22.2V133.9z M565.6,83.9v50h-21.8V86.7c0-9.5-6-15.5-15.1-15.5c-2.8,0-6,0.4-8.1,1.4
			v-18c4.2-2.1,9.2-3.2,15.1-3.2C554.3,51.2,565.6,64.2,565.6,83.9z"/>
	</g>
	<path class="st2" d="M96.5,207.8c0,20.4-15.8,34.2-38,34.2H47.2v-18.7h11.3c10.2,0,15.8-6.3,15.8-15.1c0-8.8-5.6-15.1-15.8-15.1
		h-18v86.6H19V174h39.4C80.6,174,96.5,187.4,96.5,207.8z"/>
	<path class="st2" d="M124.6,239.2c0,13.4,8.8,22.2,20.8,22.2c4.9,0,9.5-1.4,13-3.5v20.4c-3.9,1.8-8.5,2.8-13.4,2.8
		c-23.6,0-42.6-18-42.6-41.6c0-15.8,8.8-28.9,21.8-35.2v34.9L124.6,239.2L124.6,239.2z M187.3,239.9c0,15.8-8.8,28.9-22.2,35.2
		v-34.5c0-13.4-8.5-22.2-20.8-22.2c-4.9,0-9.9,1.4-13.4,3.9v-20.8c3.9-1.8,8.5-2.8,13.7-2.8C168.3,198.7,187.3,216.3,187.3,239.9z"
		/>
	<path class="st2" d="M165.5,204.7c13,6.3,21.8,19,21.8,35.2c0,23.6-19,41.6-42.6,41.6c-4.9,0-9.5-1.1-13.4-2.8v-20.4
		c3.5,2.1,8.5,3.5,13,3.5c12,0,20.8-8.8,20.8-22.2v-34.9L165.5,204.7L165.5,204.7z"/>
	<path class="st2" d="M295.4,170.9c0.4,7.4-5.3,13.4-12.7,14.1c-8.5,0.7-15.1-5.6-14.8-13.7c0.4-6.3,5.3-11.6,11.3-12.7
		C287.7,157.1,295.1,162.8,295.4,170.9z M292.6,279.3h-21.5v-78.9h21.5V279.3z"/>
	<path class="st2" d="M349.3,249.8c0,9.2,4.6,12.3,14.8,12.3c2.5,0,6-0.4,10.2-0.7v18c-4.2,1.1-9.2,1.8-14.8,1.8
		c-19.4,0-31.7-9.5-31.7-29.6v-7.4h21.5V249.8z"/>
	<path class="st2" d="M412.7,170.9c0.4,7.4-5.3,13.4-12.7,14.1c-8.5,0.7-15.1-5.6-14.8-13.7c0.4-6.3,5.3-11.6,11.3-12.7
		C404.9,157.1,412.3,162.8,412.7,170.9z M409.9,279.3h-21.5v-78.9h21.5V279.3z"/>
	<path class="st2" d="M473.2,265.2l-7.7,15.8h-7l-39.1-81h22.5L473.2,265.2z M477.1,257.5l-11.3-22.9l16.2-34.2h22.9L477.1,257.5z"
		/>
	<path class="st2" d="M533.5,231.8H563c0-10.2-8.1-15.8-16.9-15.8c-11.3,0-19.7,9.2-19.7,23.6c0,14.8,9.2,23.2,23.2,23.2
		c8.5,0,15.5-3.2,22.2-8.1l8.8,14.8c-8.8,7.4-19.4,12-31.7,12c-28.5,0-48.2-23.2-42.3-51.4c3.5-16.2,17.3-28.5,33.8-31
		c25.7-3.5,43.7,14.1,43.7,36.3c0,4.6-0.7,9.2-1.4,12h-48.9v-15.5L533.5,231.8L533.5,231.8z"/>
	<path class="st2" d="M208.9,257.9"/>
	<path class="st2" d="M280.3,263.1"/>
	<g>
		<path d="M0,321.5h11.6c9.5,0,14.4,5.3,14.4,13c0,4.9-2.1,8.8-6.7,10.9l9.2,12.3h-7.4l-7.7-10.6c-1.1,0-2.1,0-3.2,0H6.3v10.6H0
			V321.5z M6.3,327.5v14.1h4.6c6,0,8.1-3.2,8.1-7c0-3.9-2.1-7-8.1-7H6.3z"/>
		<path d="M39.8,321.5h23.6v6H46.1v10.2h15.5v5.3H46.1v8.8h17.3v6H39.8V321.5z"/>
		<path d="M113.7,357.8h-6.3V337l-11.3,21.1H94l-11.3-20.8v20.4h-6.3l1.1-36.6h2.8l15.1,26.4l14.8-26.4h2.5L113.7,357.8z"/>
		<path d="M151.8,349h-17.3v8.8h-6.3V337c0-11.3,5.6-16.2,15.1-16.2s15.1,4.9,15.1,16.2v20.8h-6.3V349H151.8z M134.2,344.1
			c3.2,0,15.5,0,17.3,0v-6.7c0-7.7-3.5-10.2-8.8-10.2c-4.9,0-8.8,2.8-8.8,10.2v6.7H134.2z"/>
		<path d="M172.5,321.5h6.3v36.3h-6.3V321.5z"/>
		<path d="M193.7,321.2h2.1l22.5,23.2v-23.2h6.3v36.3h-1.8l-22.5-22.5v22.5h-6.7V321.2z"/>
		<path d="M245.8,347.2v10.6h-6.3v-36.3h10.9c9.5,0,14.4,5.3,14.4,13c0,7.4-4.9,12.7-15.8,12.7L245.8,347.2L245.8,347.2z
			 M245.8,327.5v14.1h4.2c6,0,8.1-3.2,8.1-7c0-3.9-2.1-7-8.1-7H245.8z"/>
		<path d="M294,320.8c11.3,0,19.4,7.7,19.4,18.7c0,10.6-8.5,18.7-19.4,18.7s-19.4-8.1-19.4-18.7C274.7,328.9,283.1,320.8,294,320.8z
			 M294,352.5c7,0,12.3-5.6,12.3-13s-5.3-13-12.3-13s-12.3,5.6-12.3,13S287,352.5,294,352.5z"/>
		<path d="M334.9,358.1c-4.2,0-8.5-1.4-12-3.5l2.1-5.6c2.8,2.1,6.7,3.2,9.9,3.2c4.2,0,6.3-2.1,6.3-4.6s-1.4-3.9-7.7-6.3
			c-7-2.5-9.5-6-9.5-10.2c0-5.3,4.6-10.6,12-10.6c3.9,0,7.7,1.1,9.9,2.5l-1.8,6c-2.1-1.1-5.3-2.5-8.1-2.5c-3.9,0-5.6,2.1-5.6,4.6
			s2.1,3.9,7,5.6c8.1,3.2,10.6,6.3,10.6,10.9C347.9,354.3,343,358.1,334.9,358.1z"/>
		<path d="M360.2,321.5h6.3v36.3h-6.3V321.5z"/>
		<path d="M376.8,321.5h30.3v6h-12v30.3h-6.3v-30.3h-12L376.8,321.5L376.8,321.5z"/>
		<path d="M417.6,321.5h6.3v36.3h-6.3V321.5z"/>
		<path d="M452.1,346.2l11.3-24.6h6.7l-16.9,36.6h-2.1l-16.9-36.6h6.7L452.1,346.2z"/>
		<path d="M480.3,321.5h23.6v6h-17.3v10.2h15.5v5.3h-15.5v8.8h17.3v6h-23.6V321.5z"/>
		<path d="M520.8,358.5c-2.1,0-3.9-1.8-3.9-3.9c0-2.1,1.8-3.9,3.9-3.9c2.1,0,3.9,1.8,3.9,3.9C524.7,356.7,522.9,358.5,520.8,358.5z"
			/>
		<path d="M538.4,321.5H562v6h-17.3v10.2h15.5v5.3h-15.5v8.8H562v6h-23.6V321.5z"/>
		<path d="M574.7,321.5h6.3v21.1c0,7,3.2,9.9,8.5,9.9s8.8-2.8,8.8-9.9v-21.1h6.3v21.1c0,10.9-6,15.5-15.1,15.5s-15.1-4.9-15.1-15.5
			v-21.1H574.7z"/>
	</g>
	<g>
		<polygon class="st2" points="367.3,198.3 349.3,198.3 349.3,180.4 327.8,180.4 327.8,198.3 310.2,198.3 310.2,219.8 327.8,219.8 
			327.8,237.4 349.3,237.4 349.3,219.8 367.3,219.8 		"/>
	</g>
	<g>
		<path class="st2" d="M237.7,233.2l-9.2-3.9c-4.9-2.1-7-3.5-7-8.8v-20.4c-12.7,2.5-21.1,10.9-21.1,22.9c0,11.3,7.4,18.3,20.1,23.9
			l8.1,3.5c4.6,2.1,7.4,3.2,7.7,7.4c1.1,4.6-4.2,5.6-4.2,5.6c-1.1,0-2.5,0.4-3.5,0.4c-8.8,0-14.1-4.9-18-10.2l-14.1,10.6
			c5.6,10.9,16.6,18,33.1,18c0.4,0,1.1,0,2.5,0c3.2,0,4.6-0.7,4.6-0.7c12.3-2.5,21.1-11.3,21.1-23.9
			C258.1,245.5,251.1,238.8,237.7,233.2z"/>
		<path class="st2" d="M244.7,226.2l14.1-10.6c-4.6-8.8-12.7-16.2-27.8-16.2c-0.4,0-0.7,0-1.8,0v18.3c1.1,0,1.8,0,1.8,0
			C237.7,217.7,241.2,220.9,244.7,226.2z"/>
	</g>
</g>
</svg>
