<?xml version="1.0" encoding="utf-8"?>
<!-- Generator: Adobe Illustrator 19.2.1, SVG Export Plug-In . SVG Version: 6.00 Build 0)  -->
<svg version="1.1" id="Layer_1" xmlns="http://www.w3.org/2000/svg" xmlns:xlink="http://www.w3.org/1999/xlink" x="0px" y="0px"
	 viewBox="0 0 173.8 100.4" style="enable-background:new 0 0 173.8 100.4;" xml:space="preserve">
<style type="text/css">
	.st0{fill:#FFFFFF;}
</style>
<g>
	<path class="st0" d="M10.8,4.6h11.5c6.4,0,11,3.9,11,9.9c0,5.9-4.6,9.9-11,9.9h-6.5v-5.5h6.5c2.9,0,4.6-1.8,4.6-4.4
		c0-2.5-1.7-4.4-4.6-4.4H17v25.1h-6.3V4.6z M23.1,26.4l6.2-1.3l7.3,10.1h-7L23.1,26.4z"/>
	<path class="st0" d="M45.5,21.4H54c0-2.9-2.3-4.6-5-4.6c-3.3,0-5.7,2.7-5.7,6.9c0,4.3,2.6,6.7,6.7,6.7c2.5,0,4.5-0.9,6.4-2.3
		l2.6,4.3c-2.6,2.2-5.7,3.4-9.2,3.4c-7.3,0-12.6-5.2-12.6-12s5.2-12,12-12c6.4,0,10.8,4.7,10.8,10.7c0,1.3-0.2,2.6-0.4,3.4H45.5
		V21.4z"/>
	<rect x="64.4" y="12.2" class="st0" width="6.3" height="23"/>
	<path class="st0" d="M79,21.8c0-2.6-1.5-4.4-4.2-4.4c-0.7,0-1.6,0.1-2.1,0.4v-5.1c1.2-0.6,2.6-0.9,4.3-0.9c5.1,0,8.3,3.8,8.3,9.2
		v14.2H79V21.8z"/>
	<path class="st0" d="M93.5,21.8c0-2.7-1.6-4.4-4.2-4.4c-0.9,0-2.5-0.2-4.4,2l-1.9-4.6c3-2.7,6.1-3,8.2-3c5.4,0,8.5,3.7,8.5,9.2
		v14.2h-6.3V21.8z"/>
	<path class="st0" d="M119,26.3h-5.8c-2,0-3.2,0.8-3.2,2.3c0,1.6,1.4,2.5,3.4,2.5c0.9,0,1.9-0.3,2.7-0.6v4.1
		c-1.3,0.7-2.8,1.1-4.7,1.1c-4.7,0-7.7-3-7.7-6.9c0-4.2,3.4-6.7,8.7-6.7h6.6V26.3z M124.4,21.6v13.6h-6.3v-14c0-2.5-1.4-4-4.3-4
		c-2.5,0-4.2,1.2-6.1,3.2l-3.2-3.8c2.7-3.2,6-4.7,10-4.7C120.4,11.7,124.4,15,124.4,21.6z"/>
	<path class="st0" d="M136.8,3.9c0,2.2-1.8,3.8-4,3.8c-2.2,0-4-1.7-4-3.8c0-2.2,1.8-3.9,4-3.9C135,0,136.8,1.7,136.8,3.9z M136,35.2
		h-6.3v-23h6.3V35.2z"/>
	<path class="st0" d="M147.8,35.2h-6.3v-23h6.3V35.2z M162.6,21v14.2h-6.2V21.8c0-2.7-1.7-4.4-4.3-4.4c-0.8,0-1.7,0.1-2.3,0.4v-5.1
		c1.2-0.6,2.6-0.9,4.3-0.9C159.4,11.7,162.6,15.4,162.6,21z"/>
</g>
<path class="st0" d="M22,56.2c0,5.8-4.5,9.7-10.8,9.7H8v-5.3h3.2c2.9,0,4.5-1.8,4.5-4.3c0-2.5-1.6-4.3-4.5-4.3H6.1v24.6H0V46.6h11.2
	C17.5,46.6,22,50.4,22,56.2z"/>
<path class="st0" d="M30,65.1c0,3.8,2.5,6.3,5.9,6.3c1.4,0,2.7-0.4,3.7-1v5.8c-1.1,0.5-2.4,0.8-3.8,0.8c-6.7,0-12.1-5.1-12.1-11.8
	c0-4.5,2.5-8.2,6.2-10V65.1z M47.8,65.3c0,4.5-2.5,8.2-6.3,10v-9.8c0-3.8-2.4-6.3-5.9-6.3c-1.4,0-2.8,0.4-3.8,1.1v-5.9
	c1.1-0.5,2.4-0.8,3.9-0.8C42.4,53.6,47.8,58.6,47.8,65.3z"/>
<path class="st0" d="M41.6,55.3c3.7,1.8,6.2,5.4,6.2,10c0,6.7-5.4,11.8-12.1,11.8c-1.4,0-2.7-0.3-3.8-0.8v-5.8c1,0.6,2.4,1,3.7,1
	c3.4,0,5.9-2.5,5.9-6.3V55.3z"/>
<path class="st0" d="M78.5,45.7c0.1,2.1-1.5,3.8-3.6,4c-2.4,0.2-4.3-1.6-4.2-3.9c0.1-1.8,1.5-3.3,3.2-3.6
	C76.3,41.8,78.4,43.4,78.5,45.7z M77.7,76.5h-6.1V54.1h6.1V76.5z"/>
<path class="st0" d="M93.8,68.1c0,2.6,1.3,3.5,4.2,3.5c0.7,0,1.7-0.1,2.9-0.2v5.1c-1.2,0.3-2.6,0.5-4.2,0.5c-5.5,0-9-2.7-9-8.4v-2.1
	h6.1V68.1z"/>
<path class="st0" d="M111.8,45.7c0.1,2.1-1.5,3.8-3.6,4c-2.4,0.2-4.3-1.6-4.2-3.9c0.1-1.8,1.5-3.3,3.2-3.6
	C109.6,41.8,111.7,43.4,111.8,45.7z M111,76.5h-6.1V54.1h6.1V76.5z"/>
<path class="st0" d="M129,72.5l-2.2,4.5h-2l-11.1-23h6.4L129,72.5z M130.1,70.3l-3.2-6.5l4.6-9.7h6.5L130.1,70.3z"/>
<path class="st0" d="M146.1,63h8.4c0-2.9-2.3-4.5-4.8-4.5c-3.2,0-5.6,2.6-5.6,6.7c0,4.2,2.6,6.6,6.6,6.6c2.4,0,4.4-0.9,6.3-2.3
	l2.5,4.2c-2.5,2.1-5.5,3.4-9,3.4c-8.1,0-13.7-6.6-12-14.6c1-4.6,4.9-8.1,9.6-8.8c7.3-1,12.4,4,12.4,10.3c0,1.3-0.2,2.6-0.4,3.4
	h-13.9V63z"/>
<path class="st0" d="M61.3,70.4"/>
<path class="st0" d="M81.6,71.9"/>
<g>
	<path class="st0" d="M173.8,72.4c0,2.6-2,4.6-4.5,4.6c-2.7,0-4.6-2-4.6-4.6c0-2.5,1.9-4.6,4.6-4.6
		C171.9,67.8,173.8,69.8,173.8,72.4z M171.9,64.5h-5.4L165.2,44h7.9L171.9,64.5z"/>
</g>
<g>
	<path d="M0,89.9h3.3c2.7,0,4.1,1.5,4.1,3.7c0,1.4-0.6,2.5-1.9,3.1l2.6,3.5H6l-2.2-3c-0.3,0-0.6,0-0.9,0H1.8v3H0V89.9z M1.8,91.6v4
		h1.3c1.7,0,2.3-0.9,2.3-2c0-1.1-0.6-2-2.3-2H1.8z"/>
	<path d="M11.3,89.9H18v1.7h-4.9v2.9h4.4V96h-4.4v2.5H18v1.7h-6.7V89.9z"/>
	<path d="M32.3,100.2h-1.8l0-5.9l-3.2,6h-0.6l-3.2-5.9l0,5.8h-1.8L22,89.8h0.8l4.3,7.5l4.2-7.5H32L32.3,100.2z"/>
	<path d="M43.1,97.7h-4.9v2.5h-1.8v-5.9c0-3.2,1.6-4.6,4.3-4.6c2.7,0,4.3,1.4,4.3,4.6v5.9h-1.8V97.7z M38.1,96.3c0.9,0,4.4,0,4.9,0
		v-1.9c0-2.2-1-2.9-2.5-2.9c-1.4,0-2.5,0.8-2.5,2.9V96.3z"/>
	<path d="M49,89.9h1.8v10.3H49V89.9z"/>
	<path d="M55,89.8h0.6l6.4,6.6v-6.6h1.8v10.3h-0.5l-6.4-6.4v6.4H55V89.8z"/>
	<path d="M69.8,97.2v3H68V89.9h3.1c2.7,0,4.1,1.5,4.1,3.7c0,2.1-1.4,3.6-4.5,3.6H69.8z M69.8,91.6v4H71c1.7,0,2.3-0.9,2.3-2
		c0-1.1-0.6-2-2.3-2H69.8z"/>
	<path d="M83.5,89.7c3.2,0,5.5,2.2,5.5,5.3c0,3-2.4,5.3-5.5,5.3c-3.1,0-5.5-2.3-5.5-5.3C78,92,80.4,89.7,83.5,89.7z M83.5,98.7
		c2,0,3.5-1.6,3.5-3.7c0-2.1-1.5-3.7-3.5-3.7c-2,0-3.5,1.6-3.5,3.7C80,97.1,81.5,98.7,83.5,98.7z"/>
	<path d="M95.1,100.3c-1.2,0-2.4-0.4-3.4-1l0.6-1.6c0.8,0.6,1.9,0.9,2.8,0.9c1.2,0,1.8-0.6,1.8-1.3c0-0.7-0.4-1.1-2.2-1.8
		c-2-0.7-2.7-1.7-2.7-2.9c0-1.5,1.3-3,3.4-3c1.1,0,2.2,0.3,2.8,0.7L97.7,92c-0.6-0.3-1.5-0.7-2.3-0.7c-1.1,0-1.6,0.6-1.6,1.3
		c0,0.7,0.6,1.1,2,1.6c2.3,0.9,3,1.8,3,3.1C98.8,99.2,97.4,100.3,95.1,100.3z"/>
	<path d="M102.3,89.9h1.8v10.3h-1.8V89.9z"/>
	<path d="M107,89.9h8.6v1.7h-3.4v8.6h-1.8v-8.6H107V89.9z"/>
	<path d="M118.6,89.9h1.8v10.3h-1.8V89.9z"/>
	<path d="M128.4,96.9l3.2-7h1.9l-4.8,10.4h-0.6l-4.8-10.4h1.9L128.4,96.9z"/>
	<path d="M136.4,89.9h6.7v1.7h-4.9v2.9h4.4V96h-4.4v2.5h4.9v1.7h-6.7V89.9z"/>
	<path d="M147.9,100.4c-0.6,0-1.1-0.5-1.1-1.1c0-0.6,0.5-1.1,1.1-1.1c0.6,0,1.1,0.5,1.1,1.1C149,99.9,148.5,100.4,147.9,100.4z"/>
	<path d="M152.9,89.9h6.7v1.7h-4.9v2.9h4.4V96h-4.4v2.5h4.9v1.7h-6.7V89.9z"/>
	<path d="M163.2,89.9h1.8v6c0,2,0.9,2.8,2.4,2.8c1.5,0,2.5-0.8,2.5-2.8v-6h1.8v6c0,3.1-1.7,4.4-4.3,4.4c-2.6,0-4.3-1.4-4.3-4.4V89.9
		z"/>
</g>
<g>
	<polygon class="st0" points="98.9,53.5 93.8,53.5 93.8,48.4 87.7,48.4 87.7,53.5 82.7,53.5 82.7,59.6 87.7,59.6 87.7,64.6 
		93.8,64.6 93.8,59.6 98.9,59.6 	"/>
</g>
<g>
	<path class="st0" d="M62.1,63.4l-2.6-1.1c-1.4-0.6-2-1-2-2.5V54c-3.6,0.7-6,3.1-6,6.5c0,3.2,2.1,5.2,5.7,6.8l2.3,1
		c1.3,0.6,2.1,0.9,2.2,2.1c0.3,1.3-1.2,1.6-1.2,1.6c-0.3,0-0.7,0.1-1,0.1c-2.5,0-4-1.4-5.1-2.9l-4,3c1.6,3.1,4.7,5.1,9.4,5.1
		c0.1,0,0.3,0,0.7,0c0.9,0,1.3-0.2,1.3-0.2c3.5-0.7,6-3.2,6-6.8C67.9,66.9,65.9,65,62.1,63.4z"/>
	<path class="st0" d="M64.1,61.4l4-3c-1.3-2.5-3.6-4.6-7.9-4.6c-0.1,0-0.2,0-0.5,0V59c0.3,0,0.5,0,0.5,0
		C62.1,59,63.1,59.9,64.1,61.4z"/>
</g>
</svg>
