<?xml version="1.0" encoding="utf-8"?>
<!-- Generator: Adobe Illustrator 16.0.0, SVG Export Plug-In . SVG Version: 6.00 Build 0)  -->
<!DOCTYPE svg PUBLIC "-//W3C//DTD SVG 1.1//EN" "http://www.w3.org/Graphics/SVG/1.1/DTD/svg11.dtd">
<svg version="1.1" xmlns="http://www.w3.org/2000/svg" xmlns:xlink="http://www.w3.org/1999/xlink" x="0px" y="0px"
	 width="173.814px" height="100.373px" viewBox="0 0 173.814 100.373" enable-background="new 0 0 173.814 100.373"
	 xml:space="preserve">
<g id="Layer_3" display="none">
	<rect x="-26.75" y="-6.127" display="inline" fill="#232323" width="239.5" height="128.25"/>
</g>
<g id="Layer_2">
	<rect x="-8.5" y="-16.377" display="none" fill="#791314" width="197.5" height="122.25"/>
</g>
<g id="Layer_1">
	<g>
		<defs>
			<rect id="SVGID_1_" width="173.814" height="100.373"/>
		</defs>
		<clipPath id="SVGID_2_">
			<use xlink:href="#SVGID_1_"  overflow="visible"/>
		</clipPath>
		<path clip-path="url(#SVGID_2_)" fill="#FFFFFF" d="M10.777,4.59h11.498c6.444,0,11.034,3.895,11.034,9.875
			c0,5.889-4.59,9.922-11.034,9.922h-6.489v-5.517h6.489c2.921,0,4.636-1.808,4.636-4.405c0-2.55-1.715-4.358-4.636-4.358h-5.239
			V35.19h-6.259V4.59z M23.062,26.381l6.213-1.298l7.325,10.107h-7.047L23.062,26.381z"/>
		<path clip-path="url(#SVGID_2_)" fill="#FFFFFF" d="M45.456,21.42h8.577c-0.046-2.921-2.318-4.636-4.961-4.636
			c-3.291,0-5.749,2.689-5.749,6.861c0,4.312,2.643,6.723,6.723,6.723c2.504,0,4.544-0.881,6.398-2.318l2.597,4.265
			c-2.597,2.179-5.657,3.431-9.18,3.431c-7.28,0-12.565-5.239-12.565-12.008S42.535,11.73,49.304,11.73
			c6.445,0,10.803,4.729,10.803,10.664c0,1.298-0.232,2.642-0.417,3.431H45.456V21.42z"/>
		<rect x="64.409" y="12.24" clip-path="url(#SVGID_2_)" fill="#FFFFFF" width="6.259" height="22.95"/>
		<path clip-path="url(#SVGID_2_)" fill="#FFFFFF" d="M78.967,21.792c0-2.643-1.484-4.405-4.173-4.405
			c-0.742,0-1.576,0.139-2.133,0.371v-5.1c1.206-0.602,2.643-0.927,4.266-0.927c5.1,0,8.299,3.755,8.299,9.226V35.19h-6.259V21.792z
			"/>
		<path clip-path="url(#SVGID_2_)" fill="#FFFFFF" d="M93.525,21.792c0-2.689-1.576-4.405-4.173-4.405
			c-0.881,0-2.488-0.212-4.35,1.996l-1.897-4.639c3.035-2.656,6.062-3.013,8.195-3.013c5.378,0,8.483,3.709,8.483,9.226V35.19
			h-6.259V21.792z"/>
		<path clip-path="url(#SVGID_2_)" fill="#FFFFFF" d="M119.042,26.334h-5.817c-2.04,0-3.199,0.789-3.199,2.319
			c0,1.623,1.392,2.503,3.432,2.503c0.881,0,1.9-0.278,2.688-0.649v4.127c-1.298,0.695-2.828,1.112-4.682,1.112
			c-4.684,0-7.743-2.967-7.743-6.861c0-4.173,3.384-6.677,8.716-6.677h6.605V26.334z M124.398,21.56V35.19h-6.259V21.188
			c0-2.504-1.437-4.033-4.265-4.033c-2.458,0-4.173,1.159-6.074,3.152l-3.246-3.848c2.689-3.199,5.981-4.729,10.015-4.729
			C120.412,11.73,124.398,15.022,124.398,21.56"/>
		<path clip-path="url(#SVGID_2_)" fill="#FFFFFF" d="M136.847,3.895c0,2.179-1.808,3.848-3.986,3.848
			c-2.227,0-4.034-1.669-4.034-3.848c0-2.225,1.808-3.895,4.034-3.895C135.039,0,136.847,1.67,136.847,3.895 M135.966,35.19h-6.259
			V12.24h6.259V35.19z"/>
		<path clip-path="url(#SVGID_2_)" fill="#FFFFFF" d="M147.789,35.191h-6.259v-22.95h6.259V35.191z M162.625,20.957v14.234h-6.213
			V21.792c0-2.69-1.669-4.405-4.312-4.405c-0.835,0-1.67,0.139-2.318,0.371v-5.1c1.206-0.603,2.643-0.927,4.312-0.927
			C159.38,11.731,162.625,15.44,162.625,20.957"/>
		<path clip-path="url(#SVGID_2_)" fill="#FFFFFF" d="M49.096,55.281c3.67,1.768,6.207,5.438,6.207,9.968
			c0,6.661-5.392,11.781-12.052,11.781c-1.405,0-2.719-0.316-3.806-0.815v-5.846c0.997,0.636,2.356,1.042,3.715,1.042
			c3.444,0,5.936-2.491,5.936-6.298V55.281z"/>
		<path clip-path="url(#SVGID_2_)" d="M0,89.887h3.286c2.731,0,4.104,1.505,4.104,3.651c0,1.417-0.584,2.541-1.87,3.14l2.629,3.477
			H6.031l-2.176-3.023c-0.291,0.029-0.598,0.044-0.919,0.044H1.811v2.979H0V89.887z M1.811,91.552v4.017h1.344
			c1.693,0,2.278-0.905,2.278-2.03c0-1.124-0.569-1.986-2.278-1.986H1.811z"/>
		<polygon clip-path="url(#SVGID_2_)" points="11.334,89.888 18.009,89.888 18.009,91.553 13.146,91.553 13.146,94.43 17.556,94.43 
			17.556,96.035 13.146,96.035 13.146,98.489 18.009,98.489 18.009,100.154 11.334,100.154 		"/>
		<polygon clip-path="url(#SVGID_2_)" points="32.295,100.154 30.512,100.154 30.47,94.254 27.3,100.241 26.671,100.241 
			23.473,94.356 23.444,100.154 21.677,100.154 21.969,89.843 22.772,89.843 27.036,97.321 31.2,89.843 32.002,89.843 		"/>
		<path clip-path="url(#SVGID_2_)" d="M43.051,97.7h-4.907v2.454h-1.825v-5.857c0-3.153,1.576-4.585,4.25-4.585
			c2.672,0,4.308,1.432,4.308,4.585v5.857h-1.826V97.7z M38.144,96.27c0.905-0.015,4.425-0.015,4.907-0.015v-1.942
			c0-2.19-1.022-2.936-2.454-2.936c-1.43,0-2.453,0.848-2.453,2.92V96.27z"/>
		<rect x="49.03" y="89.887" clip-path="url(#SVGID_2_)" width="1.811" height="10.268"/>
		<polygon clip-path="url(#SVGID_2_)" points="55.047,89.828 55.617,89.828 61.969,96.444 61.969,89.888 63.781,89.888 
			63.781,100.228 63.299,100.228 56.858,93.786 56.858,100.154 55.047,100.154 		"/>
		<path clip-path="url(#SVGID_2_)" d="M69.836,97.175v2.979h-1.811V89.887h3.141c2.73,0,4.103,1.505,4.103,3.651
			c0,2.147-1.359,3.637-4.454,3.637H69.836z M69.836,91.552v4.017h1.198c1.694,0,2.278-0.905,2.278-2.03
			c0-1.124-0.57-1.986-2.278-1.986H69.836z"/>
		<path clip-path="url(#SVGID_2_)" d="M83.507,89.712c3.183,0,5.49,2.234,5.49,5.301c0,3.023-2.351,5.303-5.49,5.303
			c-3.141,0-5.478-2.265-5.478-5.303C78.029,92.049,80.424,89.712,83.507,89.712 M83.521,98.723c1.986,0,3.534-1.592,3.534-3.681
			c0-2.103-1.474-3.694-3.534-3.694c-2.03,0-3.534,1.592-3.534,3.694C79.987,97.102,81.535,98.723,83.521,98.723"/>
		<path clip-path="url(#SVGID_2_)" d="M95.104,100.33c-1.212,0-2.425-0.409-3.359-0.979l0.629-1.635
			c0.846,0.568,1.869,0.919,2.788,0.919c1.213,0,1.768-0.598,1.768-1.255c0-0.688-0.38-1.097-2.234-1.782
			c-2-0.731-2.688-1.68-2.688-2.906c0-1.549,1.257-2.979,3.447-2.979c1.095,0,2.176,0.32,2.833,0.701l-0.584,1.606
			c-0.599-0.336-1.505-0.687-2.293-0.687c-1.081,0-1.577,0.599-1.577,1.314c0,0.657,0.555,1.066,2,1.592
			c2.293,0.892,2.951,1.797,2.951,3.141C98.785,99.205,97.397,100.33,95.104,100.33"/>
		<rect x="102.305" y="89.887" clip-path="url(#SVGID_2_)" width="1.812" height="10.268"/>
		<polygon clip-path="url(#SVGID_2_)" points="107.027,89.888 115.658,89.888 115.658,91.553 112.284,91.553 112.284,100.154 
			110.459,100.154 110.459,91.553 107.027,91.553 		"/>
		<rect x="118.586" y="89.887" clip-path="url(#SVGID_2_)" width="1.812" height="10.268"/>
		<polygon clip-path="url(#SVGID_2_)" points="128.392,96.897 131.546,89.888 133.444,89.888 128.685,100.286 128.07,100.286 
			123.309,89.888 125.25,89.888 		"/>
		<polygon clip-path="url(#SVGID_2_)" points="136.382,89.888 143.057,89.888 143.057,91.553 138.192,91.553 138.192,94.43 
			142.604,94.43 142.604,96.035 138.192,96.035 138.192,98.489 143.057,98.489 143.057,100.154 136.382,100.154 		"/>
		<path clip-path="url(#SVGID_2_)" d="M147.885,100.373c-0.628,0-1.095-0.482-1.095-1.095c0-0.6,0.467-1.097,1.095-1.097
			c0.614,0,1.095,0.497,1.095,1.097C148.979,99.891,148.499,100.373,147.885,100.373"/>
		<polygon clip-path="url(#SVGID_2_)" points="152.921,89.888 159.596,89.888 159.596,91.553 154.732,91.553 154.732,94.43 
			159.143,94.43 159.143,96.035 154.732,96.035 154.732,98.489 159.596,98.489 159.596,100.154 152.921,100.154 		"/>
		<path clip-path="url(#SVGID_2_)" d="M163.222,89.888h1.812v6.017c0,1.957,0.891,2.775,2.438,2.775
			c1.547,0,2.498-0.818,2.498-2.789v-6.003h1.812v6.017c0,3.067-1.739,4.44-4.31,4.44c-2.571,0-4.25-1.373-4.25-4.44V89.888z"/>
		<g clip-path="url(#SVGID_2_)">
			<path fill="#FFFFFF" d="M29.521,56.233c0,5.755-4.486,9.695-10.784,9.695H15.52v-5.346h3.217c2.9,0,4.531-1.767,4.531-4.35
				c0-2.492-1.631-4.305-4.531-4.305h-5.12v24.559H7.5V46.582h11.237C25.035,46.582,29.521,50.388,29.521,56.233"/>
			<path fill="#FFFFFF" d="M37.451,65.114c0,3.806,2.492,6.298,5.935,6.298c1.36,0,2.719-0.408,3.716-1.042v5.845
				c-1.088,0.498-2.402,0.815-3.806,0.815c-6.661,0-12.053-5.119-12.053-11.78c0-4.531,2.538-8.201,6.208-9.968V65.114z
				 M55.303,65.295c0,4.486-2.537,8.201-6.253,9.968v-9.832c0-3.761-2.446-6.298-5.89-6.298c-1.36,0-2.764,0.408-3.761,1.087v-5.89
				c1.087-0.498,2.447-0.771,3.851-0.771C49.911,53.56,55.303,58.635,55.303,65.295"/>
			<path fill="#FFFFFF" d="M86.036,45.696c0.106,2.051-1.533,3.812-3.582,3.956c-2.361,0.167-4.33-1.59-4.249-3.887
				c0.064-1.804,1.461-3.315,3.242-3.611C83.805,41.763,85.916,43.395,86.036,45.696 M85.182,76.487h-6.118v-22.43h6.118V76.487z"/>
			<path fill="#FFFFFF" d="M101.345,68.06c0,2.582,1.313,3.488,4.169,3.488c0.725,0,1.721-0.091,2.899-0.182v5.121
				c-1.224,0.316-2.629,0.543-4.214,0.543c-5.528,0-8.972-2.673-8.972-8.427v-2.06h6.117V68.06z"/>
			<path fill="#FFFFFF" d="M119.327,45.697c0.105,2.051-1.533,3.811-3.582,3.955c-2.362,0.167-4.331-1.59-4.249-3.888
				c0.064-1.805,1.462-3.316,3.244-3.61C117.096,41.764,119.208,43.396,119.327,45.697 M118.471,76.487h-6.117v-22.43h6.117V76.487z
				"/>
			<path fill="#FFFFFF" d="M136.537,72.499l-2.22,4.531h-2.039l-11.102-22.973h6.435L136.537,72.499z M137.579,70.279l-3.217-6.525
				l4.575-9.696h6.48L137.579,70.279z"/>
			<path fill="#FFFFFF" d="M153.583,63.029h8.382c-0.045-2.854-2.266-4.531-4.849-4.531c-3.217,0-5.617,2.628-5.617,6.706
				c0,4.214,2.582,6.57,6.569,6.57c2.447,0,4.44-0.861,6.252-2.265l2.538,4.168c-2.538,2.129-5.527,3.353-8.971,3.353
				c-8.106,0-13.683-6.647-11.969-14.582c1.004-4.646,4.915-8.141,9.627-8.767c7.271-0.966,12.354,3.964,12.354,10.299
				c0,1.269-0.226,2.583-0.408,3.354h-13.909V63.029z"/>
			<polygon fill="#FFFFFF" points="106.408,53.458 101.344,53.458 101.344,48.394 95.228,48.394 95.228,53.458 90.164,53.458 
				90.164,59.575 95.228,59.575 95.228,64.638 101.344,64.638 101.344,59.575 106.408,59.575 			"/>
			<path fill="#FFFFFF" d="M69.596,63.379l-2.613-1.102c-1.41-0.584-1.959-0.996-1.959-2.543v-5.776
				c-3.576,0.654-5.982,3.095-5.982,6.532c0,3.162,2.063,5.226,5.741,6.841l2.337,1.032c1.341,0.582,2.057,0.927,2.247,2.082
				c0.259,1.31-1.249,1.596-1.249,1.596c-0.31,0.034-0.654,0.069-1.031,0.069c-2.545,0-3.954-1.444-5.054-2.923l-3.988,3.026
				c1.65,3.06,4.744,5.088,9.385,5.088c0.069,0,0.344,0,0.688-0.035c0.89-0.032,1.306-0.206,1.306-0.206
				c3.507-0.722,5.982-3.162,5.982-6.841C75.406,66.886,73.377,64.959,69.596,63.379"/>
			<path fill="#FFFFFF" d="M71.612,61.384l3.954-3.024c-1.273-2.51-3.645-4.572-7.873-4.572c-0.069,0-0.241,0-0.55,0.034v5.19
				c0.309-0.033,0.481-0.033,0.55-0.033C69.584,58.979,70.581,59.872,71.612,61.384"/>
		</g>
	</g>
</g>
</svg>
