<?xml version="1.0" encoding="utf-8"?>
<!-- Generator: Adobe Illustrator 16.0.0, SVG Export Plug-In . SVG Version: 6.00 Build 0)  -->
<!DOCTYPE svg PUBLIC "-//W3C//DTD SVG 1.1//EN" "http://www.w3.org/Graphics/SVG/1.1/DTD/svg11.dtd">
<svg version="1.1" xmlns="http://www.w3.org/2000/svg" xmlns:xlink="http://www.w3.org/1999/xlink" x="0px" y="0px" width="612px"
	 height="792px" viewBox="0 0 612 792" enable-background="new 0 0 612 792" xml:space="preserve">
<g id="Layer_2" display="none">
	<rect x="-41.5" y="-36.5" display="inline" fill="#BA1313" stroke="#000000" stroke-miterlimit="10" width="765" height="858"/>
</g>
<g id="Layer_1">
	<g>
		<path fill="#FFFFFF" d="M38.03,235.429h40.495c22.536,0,38.734,13.733,38.734,34.861c0,20.775-16.198,34.861-38.734,34.861H55.636
			v-19.367h22.889c10.211,0,16.198-6.338,16.198-15.494c0-8.803-5.986-15.494-16.198-15.494H59.862v88.384H37.678V235.429H38.03z
			 M81.342,312.193l21.832-4.578l25.706,35.565H104.23L81.342,312.193z"/>
		<path fill="#FFFFFF" d="M160.219,294.587h29.931c0-10.212-8.099-16.198-17.606-16.198c-11.62,0-20.071,9.507-20.071,24.297
			c0,15.141,9.155,23.592,23.593,23.592c8.803,0,15.846-3.169,22.536-8.099l9.155,15.142c-9.155,7.747-20.071,11.972-32.396,11.972
			c-25.706,0-44.369-18.311-44.369-42.255s18.311-42.255,42.256-42.255c22.536,0,38.03,16.55,38.03,37.678
			c0,4.578-0.704,9.155-1.409,11.972h-49.65V294.587z"/>
		<rect x="226.771" y="262.191" fill="#FFFFFF" width="22.184" height="80.99"/>
		<path fill="#FFFFFF" d="M278.182,295.996c0-9.156-5.282-15.494-14.789-15.494c-2.465,0-5.634,0.352-7.395,1.408v-17.958
			c4.226-2.113,9.156-3.169,15.142-3.169c17.958,0,29.227,13.381,29.227,32.396v50.002h-22.185V295.996z"/>
		<path fill="#FFFFFF" d="M329.24,295.996c0-9.508-5.634-15.494-14.789-15.494c-3.169,0-8.804-0.705-15.494,7.042l-6.69-16.198
			c10.564-9.507,21.48-10.563,28.875-10.563c19.015,0,29.931,13.029,29.931,32.396v50.002h-22.184v-47.185H329.24z"/>
		<path fill="#FFFFFF" d="M419.033,311.841H398.61c-7.043,0-11.269,2.817-11.269,8.099c0,5.634,4.93,8.803,11.973,8.803
			c3.169,0,6.69-1.056,9.507-2.112v14.437c-4.577,2.465-9.859,3.874-16.55,3.874c-16.55,0-27.114-10.564-27.114-24.297
			c0-14.79,11.973-23.593,30.636-23.593h23.24V311.841z M438.049,295.291v47.89h-22.185v-49.298c0-8.803-4.93-14.085-15.142-14.085
			c-8.803,0-14.789,4.226-21.479,11.268l-11.269-13.381c9.508-11.268,21.128-16.55,35.213-16.55
			C423.963,260.431,438.049,272.051,438.049,295.291z"/>
		<path fill="#FFFFFF" d="M481.712,232.964c0,7.747-6.338,13.381-14.085,13.381s-14.085-5.986-14.085-13.381
			c0-7.747,6.338-13.733,14.085-13.733S481.712,225.218,481.712,232.964z M478.896,343.181h-22.185v-80.99h22.185V343.181z"/>
		<path fill="#FFFFFF" d="M520.446,343.181h-22.184v-80.99h22.184V343.181z M572.562,293.178v50.002h-21.832v-47.185
			c0-9.508-5.986-15.494-15.142-15.494c-2.816,0-5.986,0.352-8.099,1.408v-17.958c4.226-2.113,9.155-3.169,15.142-3.169
			C561.293,260.431,572.562,273.459,572.562,293.178z"/>
	</g>
	<path fill="#FFFFFF" d="M103.468,417.128c0,20.423-15.846,34.156-38.03,34.156H54.17v-18.663h11.268
		c10.212,0,15.846-6.338,15.846-15.141c0-8.804-5.634-15.143-15.846-15.143H47.48v86.624H26V383.323h39.438
		C87.623,383.323,103.468,396.704,103.468,417.128z"/>
	<path fill="#FFFFFF" d="M131.639,448.467c0,13.381,8.803,22.185,20.775,22.185c4.93,0,9.508-1.408,13.029-3.521v20.424
		c-3.873,1.761-8.451,2.817-13.381,2.817c-23.592,0-42.607-17.959-42.607-41.552c0-15.846,8.803-28.874,21.832-35.213v34.86H131.639
		z M194.317,449.172c0,15.846-8.803,28.874-22.184,35.213v-34.509c0-13.381-8.451-22.185-20.775-22.185
		c-4.93,0-9.86,1.409-13.381,3.874v-20.776c3.874-1.76,8.451-2.816,13.733-2.816C175.303,407.973,194.317,425.579,194.317,449.172z"
		/>
	<path fill="#FFFFFF" d="M172.486,413.959c13.028,6.338,21.832,19.015,21.832,35.213c0,23.592-19.015,41.551-42.607,41.551
		c-4.93,0-9.507-1.057-13.381-2.817v-20.423c3.521,2.112,8.451,3.521,13.029,3.521c11.972,0,20.775-8.804,20.775-22.185v-34.86
		H172.486z"/>
	<path fill="#FFFFFF" d="M302.421,380.154c0.352,7.395-5.282,13.381-12.677,14.085c-8.451,0.705-15.142-5.634-14.79-13.733
		c0.352-6.338,5.282-11.62,11.268-12.677C294.674,366.421,302.069,372.055,302.421,380.154z M299.604,488.61h-21.48v-78.878h21.48
		V488.61z"/>
	<path fill="#FFFFFF" d="M356.297,459.031c0,9.155,4.578,12.324,14.789,12.324c2.465,0,5.986-0.352,10.212-0.704v17.959
		c-4.226,1.056-9.155,1.76-14.789,1.76c-19.367,0-31.691-9.507-31.691-29.578v-7.395h21.479V459.031z"/>
	<path fill="#FFFFFF" d="M419.68,380.154c0.353,7.395-5.281,13.381-12.676,14.085c-8.451,0.705-15.142-5.634-14.79-13.733
		c0.353-6.338,5.282-11.62,11.269-12.677C411.934,366.421,419.328,372.055,419.68,380.154z M416.863,488.61h-21.48v-78.878h21.48
		V488.61z"/>
	<path fill="#FFFFFF" d="M480.246,474.524l-7.747,15.846h-7.042l-39.087-80.989h22.537L480.246,474.524z M484.12,466.778
		l-11.269-22.889l16.198-34.157h22.888L484.12,466.778z"/>
	<path fill="#FFFFFF" d="M540.46,441.072h29.579c0-10.212-8.099-15.846-16.902-15.846c-11.268,0-19.719,9.155-19.719,23.593
		c0,14.789,9.155,23.24,23.24,23.24c8.451,0,15.494-3.169,22.185-8.099l8.803,14.789c-8.803,7.395-19.367,11.973-31.691,11.973
		c-28.522,0-48.242-23.24-42.256-51.411c3.521-16.197,17.255-28.522,33.805-30.987c25.705-3.521,43.664,14.086,43.664,36.27
		c0,4.578-0.704,9.155-1.408,11.973h-48.946v-15.494H540.46z"/>
	<path fill="#FFFFFF" d="M215.855,467.13"/>
	<path fill="#FFFFFF" d="M287.337,472.412"/>
	<g>
		<path d="M0,535.795h11.62c9.508,0,14.438,5.282,14.438,13.029c0,4.93-2.113,8.803-6.69,10.916l9.155,12.324h-7.395l-7.747-10.563
			c-1.056,0-2.113,0-3.169,0H6.338v10.563H0V535.795z M6.338,541.781v14.085h4.578c5.986,0,8.099-3.169,8.099-7.042
			c0-3.874-2.113-7.043-8.099-7.043H6.338z"/>
		<path d="M39.791,535.795h23.593v5.986H46.129v10.212h15.494v5.282H46.129v8.803h17.254v5.986H39.791V535.795z"/>
		<path d="M113.738,572.064h-6.338v-20.775l-11.268,21.128h-2.113L82.75,551.641v20.424h-6.338l1.056-36.621h2.817l15.142,26.409
			l14.79-26.409h2.465L113.738,572.064z"/>
		<path d="M151.768,563.262h-17.254v8.803h-6.338v-20.775c0-11.269,5.634-16.198,15.142-16.198s15.142,4.93,15.142,16.198v20.775
			h-6.338v-8.803H151.768z M134.161,558.331c3.169,0,15.494,0,17.254,0v-6.69c0-7.746-3.521-10.211-8.803-10.211
			c-4.93,0-8.803,2.816-8.803,10.211v6.69H134.161z"/>
		<path d="M172.543,535.795h6.338v36.27h-6.338V535.795z"/>
		<path d="M193.671,535.443h2.113l22.536,23.24v-23.24h6.338v36.269h-1.761l-22.536-22.536v22.536h-6.69V535.443z"/>
		<path d="M245.786,561.501v10.563h-6.338v-36.27h10.916c9.507,0,14.437,5.282,14.437,13.029c0,7.395-4.93,12.677-15.846,12.677
			H245.786z M245.786,541.781v14.085h4.226c5.986,0,8.099-3.169,8.099-7.042c0-3.874-2.113-7.043-8.099-7.043H245.786z"/>
		<path d="M294.028,535.091c11.268,0,19.367,7.747,19.367,18.663c0,10.563-8.451,18.663-19.367,18.663
			c-10.916,0-19.367-8.1-19.367-18.663C274.661,543.189,283.112,535.091,294.028,535.091z M294.028,566.782
			c7.042,0,12.325-5.634,12.325-13.028s-5.282-13.029-12.325-13.029c-7.043,0-12.325,5.635-12.325,13.029
			S286.985,566.782,294.028,566.782z"/>
		<path d="M334.875,572.417c-4.226,0-8.451-1.409-11.973-3.521l2.112-5.634c2.817,2.112,6.69,3.169,9.86,3.169
			c4.225,0,6.338-2.113,6.338-4.578s-1.408-3.873-7.747-6.338c-7.042-2.465-9.507-5.986-9.507-10.212
			c0-5.282,4.577-10.563,11.972-10.563c3.874,0,7.747,1.056,9.86,2.465l-1.761,5.985c-2.113-1.056-5.282-2.465-8.1-2.465
			c-3.873,0-5.634,2.113-5.634,4.578s2.112,3.873,7.043,5.634c8.099,3.169,10.563,6.339,10.563,10.916
			C347.903,568.543,342.974,572.417,334.875,572.417z"/>
		<path d="M360.228,535.795h6.339v36.27h-6.339V535.795z"/>
		<path d="M376.778,535.795h30.282v5.986h-11.972v30.283h-6.339v-30.283h-11.972V535.795z"/>
		<path d="M417.625,535.795h6.338v36.27h-6.338V535.795z"/>
		<path d="M452.134,560.444l11.268-24.649h6.69l-16.902,36.622h-2.112l-16.902-36.622h6.69L452.134,560.444z"/>
		<path d="M480.304,535.795h23.593v5.986h-17.254v10.212h15.493v5.282h-15.493v8.803h17.254v5.986h-23.593V535.795z"/>
		<path d="M520.799,572.769c-2.113,0-3.874-1.761-3.874-3.873c0-2.113,1.761-3.874,3.874-3.874c2.112,0,3.873,1.761,3.873,3.874
			C524.672,571.008,522.911,572.769,520.799,572.769z"/>
		<path d="M538.405,535.795h23.593v5.986h-17.255v10.212h15.494v5.282h-15.494v8.803h17.255v5.986h-23.593V535.795z"/>
		<path d="M574.674,535.795h6.339v21.128c0,7.043,3.169,9.859,8.451,9.859s8.803-2.816,8.803-9.859v-21.128h6.339v21.128
			c0,10.916-5.986,15.494-15.142,15.494s-15.142-4.931-15.142-15.494v-21.128H574.674z"/>
	</g>
	<g>
		<polygon fill="#FFFFFF" points="374.256,407.62 356.297,407.62 356.297,389.662 334.817,389.662 334.817,407.62 317.211,407.62 
			317.211,429.101 334.817,429.101 334.817,446.707 356.297,446.707 356.297,429.101 374.256,429.101 		"/>
	</g>
	<g>
		<path fill="#FFFFFF" d="M244.672,442.481l-9.155-3.874c-4.93-2.112-7.042-3.521-7.042-8.803v-20.424
			c-12.677,2.465-21.128,10.916-21.128,22.889c0,11.268,7.395,18.311,20.072,23.944l8.099,3.521
			c4.578,2.112,7.395,3.169,7.747,7.395c1.056,4.578-4.226,5.634-4.226,5.634c-1.057,0-2.465,0.353-3.521,0.353
			c-8.803,0-14.085-4.93-17.958-10.212l-14.085,10.564c5.634,10.916,16.55,17.958,33.1,17.958c0.352,0,1.056,0,2.465,0
			c3.169,0,4.578-0.704,4.578-0.704c12.324-2.465,21.127-11.268,21.127-23.944C265.096,454.806,258.053,448.115,244.672,442.481z"/>
		<path fill="#FFFFFF" d="M251.715,435.438l14.085-10.563c-4.578-8.804-12.677-16.198-27.818-16.198c-0.352,0-0.704,0-1.761,0
			v18.311c1.057,0,1.761,0,1.761,0C244.672,426.987,248.193,430.156,251.715,435.438z"/>
	</g>
</g>
</svg>
